<svg id="visual" viewBox="0 0 960 360" width="960" height="360" xmlns="http://www.w3.org/2000/svg" xmlns:xlink="http://www.w3.org/1999/xlink" version="1.1"><path d="M0 208L17.8 220.2C35.7 232.3 71.3 256.7 106.8 258.2C142.3 259.7 177.7 238.3 213.2 240.8C248.7 243.3 284.3 269.7 320 270.3C355.7 271 391.3 246 426.8 246.2C462.3 246.3 497.7 271.7 533.2 267.8C568.7 264 604.3 231 640 216.2C675.7 201.3 711.3 204.7 746.8 211C782.3 217.3 817.7 226.7 853.2 241.5C888.7 256.3 924.3 276.7 942.2 286.8L960 297L960 361L942.2 361C924.3 361 888.7 361 853.2 361C817.7 361 782.3 361 746.8 361C711.3 361 675.7 361 640 361C604.3 361 568.7 361 533.2 361C497.7 361 462.3 361 426.8 361C391.3 361 355.7 361 320 361C284.3 361 248.7 361 213.2 361C177.7 361 142.3 361 106.8 361C71.3 361 35.7 361 17.8 361L0 361Z" fill="#d5e0fe"></path><path d="M0 220L17.8 228C35.7 236 71.3 252 106.8 255.7C142.3 259.3 177.7 250.7 213.2 242C248.7 233.3 284.3 224.7 320 236C355.7 247.3 391.3 278.7 426.8 276.5C462.3 274.3 497.7 238.7 533.2 230.7C568.7 222.7 604.3 242.3 640 258.5C675.7 274.7 711.3 287.3 746.8 295C782.3 302.7 817.7 305.3 853.2 299.2C888.7 293 924.3 278 942.2 270.5L960 263L960 361L942.2 361C924.3 361 888.7 361 853.2 361C817.7 361 782.3 361 746.8 361C711.3 361 675.7 361 640 361C604.3 361 568.7 361 533.2 361C497.7 361 462.3 361 426.8 361C391.3 361 355.7 361 320 361C284.3 361 248.7 361 213.2 361C177.7 361 142.3 361 106.8 361C71.3 361 35.7 361 17.8 361L0 361Z" fill="#ccd7f4"></path><path d="M0 243L17.8 253.7C35.7 264.3 71.3 285.7 106.8 298.5C142.3 311.3 177.7 315.7 213.2 304.3C248.7 293 284.3 266 320 259.3C355.7 252.7 391.3 266.3 426.8 276C462.3 285.7 497.7 291.3 533.2 285.3C568.7 279.3 604.3 261.7 640 260.3C675.7 259 711.3 274 746.8 280.3C782.3 286.7 817.7 284.3 853.2 278.5C888.7 272.7 924.3 263.3 942.2 258.7L960 254L960 361L942.2 361C924.3 361 888.7 361 853.2 361C817.7 361 782.3 361 746.8 361C711.3 361 675.7 361 640 361C604.3 361 568.7 361 533.2 361C497.7 361 462.3 361 426.8 361C391.3 361 355.7 361 320 361C284.3 361 248.7 361 213.2 361C177.7 361 142.3 361 106.8 361C71.3 361 35.7 361 17.8 361L0 361Z" fill="#c3cee9"></path><path d="M0 276L17.8 284.3C35.7 292.7 71.3 309.3 106.8 314.7C142.3 320 177.7 314 213.2 313.7C248.7 313.3 284.3 318.7 320 311.5C355.7 304.3 391.3 284.7 426.8 284.7C462.3 284.7 497.7 304.3 533.2 310.8C568.7 317.3 604.3 310.7 640 304.8C675.7 299 711.3 294 746.8 287.5C782.3 281 817.7 273 853.2 273.7C888.7 274.3 924.3 283.7 942.2 288.3L960 293L960 361L942.2 361C924.3 361 888.7 361 853.2 361C817.7 361 782.3 361 746.8 361C711.3 361 675.7 361 640 361C604.3 361 568.7 361 533.2 361C497.7 361 462.3 361 426.8 361C391.3 361 355.7 361 320 361C284.3 361 248.7 361 213.2 361C177.7 361 142.3 361 106.8 361C71.3 361 35.7 361 17.8 361L0 361Z" fill="#bbc5df"></path><path d="M0 280L17.8 281.5C35.7 283 71.3 286 106.8 295.8C142.3 305.7 177.7 322.3 213.2 325.8C248.7 329.3 284.3 319.7 320 319.5C355.7 319.3 391.3 328.7 426.8 330C462.3 331.3 497.7 324.7 533.2 318.8C568.7 313 604.3 308 640 305.3C675.7 302.7 711.3 302.3 746.8 300.3C782.3 298.3 817.7 294.7 853.2 300.5C888.7 306.3 924.3 321.7 942.2 329.3L960 337L960 361L942.2 361C924.3 361 888.7 361 853.2 361C817.7 361 782.3 361 746.8 361C711.3 361 675.7 361 640 361C604.3 361 568.7 361 533.2 361C497.7 361 462.3 361 426.8 361C391.3 361 355.7 361 320 361C284.3 361 248.7 361 213.2 361C177.7 361 142.3 361 106.8 361C71.3 361 35.7 361 17.8 361L0 361Z" fill="#b2bcd5"></path><path d="M0 321L17.8 318.7C35.7 316.3 71.3 311.7 106.8 314.8C142.3 318 177.7 329 213.2 329.7C248.7 330.3 284.3 320.7 320 317.8C355.7 315 391.3 319 426.8 325.3C462.3 331.7 497.7 340.3 533.2 339.2C568.7 338 604.3 327 640 320C675.7 313 711.3 310 746.8 313.7C782.3 317.3 817.7 327.7 853.2 329C888.7 330.3 924.3 322.7 942.2 318.8L960 315L960 361L942.2 361C924.3 361 888.7 361 853.2 361C817.7 361 782.3 361 746.8 361C711.3 361 675.7 361 640 361C604.3 361 568.7 361 533.2 361C497.7 361 462.3 361 426.8 361C391.3 361 355.7 361 320 361C284.3 361 248.7 361 213.2 361C177.7 361 142.3 361 106.8 361C71.3 361 35.7 361 17.8 361L0 361Z" fill="#aab3cb"></path></svg>