<svg id="visual" viewBox="0 0 900 600" width="900" height="600" xmlns="http://www.w3.org/2000/svg" xmlns:xlink="http://www.w3.org/1999/xlink" version="1.1"><path d="M0 411L21.5 411.2C43 411.3 86 411.7 128.8 406.2C171.7 400.7 214.3 389.3 257.2 382.7C300 376 343 374 385.8 372.8C428.7 371.7 471.3 371.3 514.2 380.7C557 390 600 409 642.8 414.7C685.7 420.3 728.3 412.7 771.2 414.5C814 416.3 857 427.7 878.5 433.3L900 439L900 601L878.5 601C857 601 814 601 771.2 601C728.3 601 685.7 601 642.8 601C600 601 557 601 514.2 601C471.3 601 428.7 601 385.8 601C343 601 300 601 257.2 601C214.3 601 171.7 601 128.8 601C86 601 43 601 21.5 601L0 601Z" fill="#aab3cb"></path><path d="M0 445L21.5 439.7C43 434.3 86 423.7 128.8 416C171.7 408.3 214.3 403.7 257.2 412.8C300 422 343 445 385.8 448.5C428.7 452 471.3 436 514.2 434.2C557 432.3 600 444.7 642.8 454.3C685.7 464 728.3 471 771.2 469.3C814 467.7 857 457.3 878.5 452.2L900 447L900 601L878.5 601C857 601 814 601 771.2 601C728.3 601 685.7 601 642.8 601C600 601 557 601 514.2 601C471.3 601 428.7 601 385.8 601C343 601 300 601 257.2 601C214.3 601 171.7 601 128.8 601C86 601 43 601 21.5 601L0 601Z" fill="#b7c0d7"></path><path d="M0 440L21.5 442.5C43 445 86 450 128.8 455.5C171.7 461 214.3 467 257.2 475.7C300 484.3 343 495.7 385.8 499.8C428.7 504 471.3 501 514.2 494.7C557 488.3 600 478.7 642.8 474C685.7 469.3 728.3 469.7 771.2 474C814 478.3 857 486.7 878.5 490.8L900 495L900 601L878.5 601C857 601 814 601 771.2 601C728.3 601 685.7 601 642.8 601C600 601 557 601 514.2 601C471.3 601 428.7 601 385.8 601C343 601 300 601 257.2 601C214.3 601 171.7 601 128.8 601C86 601 43 601 21.5 601L0 601Z" fill="#c4cde4"></path><path d="M0 516L21.5 510.5C43 505 86 494 128.8 498.3C171.7 502.7 214.3 522.3 257.2 524.2C300 526 343 510 385.8 506.3C428.7 502.7 471.3 511.3 514.2 518.8C557 526.3 600 532.7 642.8 532.8C685.7 533 728.3 527 771.2 523.3C814 519.7 857 518.3 878.5 517.7L900 517L900 601L878.5 601C857 601 814 601 771.2 601C728.3 601 685.7 601 642.8 601C600 601 557 601 514.2 601C471.3 601 428.7 601 385.8 601C343 601 300 601 257.2 601C214.3 601 171.7 601 128.8 601C86 601 43 601 21.5 601L0 601Z" fill="#d1daf1"></path><path d="M0 557L21.5 553.5C43 550 86 543 128.8 545.2C171.7 547.3 214.3 558.7 257.2 562.8C300 567 343 564 385.8 562.8C428.7 561.7 471.3 562.3 514.2 562C557 561.7 600 560.3 642.8 555.7C685.7 551 728.3 543 771.2 545.5C814 548 857 561 878.5 567.5L900 574L900 601L878.5 601C857 601 814 601 771.2 601C728.3 601 685.7 601 642.8 601C600 601 557 601 514.2 601C471.3 601 428.7 601 385.8 601C343 601 300 601 257.2 601C214.3 601 171.7 601 128.8 601C86 601 43 601 21.5 601L0 601Z" fill="#dfe7fe"></path></svg>