<svg id="visual" viewBox="0 0 960 360" width="960" height="360" xmlns="http://www.w3.org/2000/svg" xmlns:xlink="http://www.w3.org/1999/xlink" version="1.1"><rect x="0" y="0" width="960" height="360" fill="#bfc8e1"></rect><path d="M0 71L17.8 86.3C35.7 101.7 71.3 132.3 106.8 150.5C142.3 168.7 177.7 174.3 213.2 165C248.7 155.7 284.3 131.3 320 130.8C355.7 130.3 391.3 153.7 426.8 159.7C462.3 165.7 497.7 154.3 533.2 155.5C568.7 156.7 604.3 170.3 640 158C675.7 145.7 711.3 107.3 746.8 87.7C782.3 68 817.7 67 853.2 84.7C888.7 102.3 924.3 138.7 942.2 156.8L960 175L960 361L942.2 361C924.3 361 888.7 361 853.2 361C817.7 361 782.3 361 746.8 361C711.3 361 675.7 361 640 361C604.3 361 568.7 361 533.2 361C497.7 361 462.3 361 426.8 361C391.3 361 355.7 361 320 361C284.3 361 248.7 361 213.2 361C177.7 361 142.3 361 106.8 361C71.3 361 35.7 361 17.8 361L0 361Z" fill="#aab3cb"></path><path d="M0 161L17.8 171C35.7 181 71.3 201 106.8 209.3C142.3 217.7 177.7 214.3 213.2 214.8C248.7 215.3 284.3 219.7 320 220.2C355.7 220.7 391.3 217.3 426.8 207.5C462.3 197.7 497.7 181.3 533.2 169.3C568.7 157.3 604.3 149.7 640 158.2C675.7 166.7 711.3 191.3 746.8 195.3C782.3 199.3 817.7 182.7 853.2 166.7C888.7 150.7 924.3 135.3 942.2 127.7L960 120L960 361L942.2 361C924.3 361 888.7 361 853.2 361C817.7 361 782.3 361 746.8 361C711.3 361 675.7 361 640 361C604.3 361 568.7 361 533.2 361C497.7 361 462.3 361 426.8 361C391.3 361 355.7 361 320 361C284.3 361 248.7 361 213.2 361C177.7 361 142.3 361 106.8 361C71.3 361 35.7 361 17.8 361L0 361Z" fill="#b7c0d7"></path><path d="M0 182L17.8 187.3C35.7 192.7 71.3 203.3 106.8 202.7C142.3 202 177.7 190 213.2 190.7C248.7 191.3 284.3 204.7 320 217.3C355.7 230 391.3 242 426.8 247.7C462.3 253.3 497.7 252.7 533.2 241.3C568.7 230 604.3 208 640 199.2C675.7 190.3 711.3 194.7 746.8 196.8C782.3 199 817.7 199 853.2 193.7C888.7 188.3 924.3 177.7 942.2 172.3L960 167L960 361L942.2 361C924.3 361 888.7 361 853.2 361C817.7 361 782.3 361 746.8 361C711.3 361 675.7 361 640 361C604.3 361 568.7 361 533.2 361C497.7 361 462.3 361 426.8 361C391.3 361 355.7 361 320 361C284.3 361 248.7 361 213.2 361C177.7 361 142.3 361 106.8 361C71.3 361 35.7 361 17.8 361L0 361Z" fill="#c4cde4"></path><path d="M0 294L17.8 285.8C35.7 277.7 71.3 261.3 106.8 254C142.3 246.7 177.7 248.3 213.2 252.7C248.7 257 284.3 264 320 262.5C355.7 261 391.3 251 426.8 247.3C462.3 243.7 497.7 246.3 533.2 251.3C568.7 256.3 604.3 263.7 640 263.3C675.7 263 711.3 255 746.8 247.8C782.3 240.7 817.7 234.3 853.2 238.3C888.7 242.3 924.3 256.7 942.2 263.8L960 271L960 361L942.2 361C924.3 361 888.7 361 853.2 361C817.7 361 782.3 361 746.8 361C711.3 361 675.7 361 640 361C604.3 361 568.7 361 533.2 361C497.7 361 462.3 361 426.8 361C391.3 361 355.7 361 320 361C284.3 361 248.7 361 213.2 361C177.7 361 142.3 361 106.8 361C71.3 361 35.7 361 17.8 361L0 361Z" fill="#d1daf1"></path><path d="M0 279L17.8 283.8C35.7 288.7 71.3 298.3 106.8 300C142.3 301.7 177.7 295.3 213.2 289.8C248.7 284.3 284.3 279.7 320 276.3C355.7 273 391.3 271 426.8 279.2C462.3 287.3 497.7 305.7 533.2 309.3C568.7 313 604.3 302 640 299.2C675.7 296.3 711.3 301.7 746.8 304.5C782.3 307.3 817.7 307.7 853.2 306.8C888.7 306 924.3 304 942.2 303L960 302L960 361L942.2 361C924.3 361 888.7 361 853.2 361C817.7 361 782.3 361 746.8 361C711.3 361 675.7 361 640 361C604.3 361 568.7 361 533.2 361C497.7 361 462.3 361 426.8 361C391.3 361 355.7 361 320 361C284.3 361 248.7 361 213.2 361C177.7 361 142.3 361 106.8 361C71.3 361 35.7 361 17.8 361L0 361Z" fill="#dfe7fe"></path></svg>